<svg width="100" xmlns="http://www.w3.org/2000/svg" height="100" id="screenshot-ef754fd0-77da-803d-8008-3ecbc6a0b753" viewBox="0 0 100 100" xmlns:xlink="http://www.w3.org/1999/xlink" fill="none" ><g id="shape-ef754fd0-77da-803d-8008-3ecbc6a0b753"><defs><clipPath id="frame-clip-ef754fd0-77da-803d-8008-3ecbc6a0b753-render-27" class="frame-clip frame-clip-def"><rect rx="0" ry="0" x="0" y="0" width="100" height="100" transform="matrix(1.000000, 0.000000, 0.000000, 1.000000, 0.000000, 0.000000)"/></clipPath></defs><g class="frame-container-wrapper"><g class="frame-container-blur"><g class="frame-container-shadows"><g clip-path="url(#frame-clip-ef754fd0-77da-803d-8008-3ecbc6a0b753-render-27)" fill="none"><g class="fills" id="fills-ef754fd0-77da-803d-8008-3ecbc6a0b753"><rect width="100" height="100" class="frame-background" x="0" transform="matrix(1.000000, 0.000000, 0.000000, 1.000000, 0.000000, 0.000000)" style="fill: rgb(0, 0, 0); fill-opacity: 1;" ry="0" rx="0" y="0"/></g><g class="frame-children"><g id="shape-ef754fd0-77da-803d-8008-3ecbce62f145" rx="0" ry="0"><g id="shape-ef754fd0-77da-803d-8008-3ecbce62f146" rx="0" ry="0"><g id="shape-ef754fd0-77da-803d-8008-3ecbce62f152"><g class="fills" id="fills-ef754fd0-77da-803d-8008-3ecbce62f152"><path d="M69.10687255859375,55.8280029296875C66.56976318359375,63.517333984375,59.44140625,69.5,50.40496826171875,69.5C40.82305908203125,69.5,34.380615234375,63.597900390625,31.79449462890625,55.994873046875C34.4852294921875,63.0777587890625,41.80767822265625,68.15606689453125,50.41925048828125,68.15606689453125C59.096923828125,68.15606689453125,66.467041015625,62.99761962890625,69.10687255859375,55.8280029296875M31.7513427734375,44.09405517578125C34.2996826171875,36.42437744140625,40.3289794921875,30.5,50.40496826171875,30.5C59.7705078125,30.5,66.65289306640625,36.50537109375,69.14825439453125,44.2618408203125C66.544677734375,37.033203125,59.14141845703125,31.817138671875,50.41912841796875,31.817138671875C41.76220703125,31.817138671875,34.40771484375,36.9521484375,31.7513427734375,44.09405517578125" fill-rule="evenodd" clip-rule="evenodd" style="fill: rgb(255, 255, 255); fill-opacity: 1;"/></g></g><g id="shape-ef754fd0-77da-803d-8008-3ecbce62f153"><g class="fills" id="fills-ef754fd0-77da-803d-8008-3ecbce62f153"><path d="M50.8013916015625,42.1998291015625C50.9224853515625,42.02490234375,51.28521728515625,42.1414794921875,51.54254150390625,42.14752197265625C51.8907470703125,42.154296875,51.80767822265625,42.6527099609375,52.284912109375,42.5533447265625C52.76177978515625,42.4549560546875,52.768310546875,42.995361328125,53.44903564453125,42.976318359375C54.1339111328125,42.955322265625,53.3131103515625,43.2083740234375,53.3131103515625,43.2083740234375C53.3131103515625,43.2083740234375,52.8907470703125,43.010009765625,52.61590576171875,43.1422119140625C52.47265625,43.2120361328125,52.67022705078125,43.1029052734375,52.4296875,42.909423828125C52.05419921875,42.6109619140625,52.1038818359375,42.966064453125,51.473876953125,42.44482421875C51.03125,42.0777587890625,50.60491943359375,42.488525390625,50.8013916015625,42.1998291015625M54.2266845703125,55.8111572265625C54.498291015625,55.9180908203125,54.8363037109375,56.182373046875,54.992919921875,56.58404541015625C55.3619384765625,57.53662109375,54.81353759765625,56.76446533203125,54.81353759765625,58.20068359375C54.81353759765625,59.523193359375,54.43023681640625,59.30865478515625,54.43023681640625,59.30865478515625C54.43023681640625,59.30865478515625,54.34710693359375,60.87139892578125,53.5191650390625,61.8311767578125C52.99072265625,62.3477783203125,53.40106201171875,62.775634765625,53.40106201171875,62.775634765625C53.40106201171875,62.775634765625,53.2216796875,62.8719482421875,52.96295166015625,64.005615234375C52.87994384765625,64.373046875,53.36163330078125,64.9388427734375,53.781494140625,64.79766845703125C54.09375,64.6922607421875,53.01812744140625,64.59112548828125,54.1842041015625,64.111328125C54.63427734375,63.926025390625,54.26629638671875,63.57794189453125,54.26629638671875,63.57794189453125C54.26629638671875,63.57794189453125,55.021728515625,63.5228271484375,55.44805908203125,62.41107177734375C56.19903564453125,62.517333984375,55.9197998046875,62.06951904296875,57.467529296875,61.74462890625C57.87677001953125,61.65826416015625,57.96319580078125,61.53887939453125,57.91278076171875,61.1634521484375C57.86126708984375,60.789794921875,58.4171142578125,61.21832275390625,59.95025634765625,59.6966552734375C61.1591796875,58.49505615234375,60.72344970703125,58.22467041015625,61.55828857421875,57.7880859375C62.441162109375,57.33050537109375,62.522216796875,57.828857421875,62.817626953125,57.4541015625C63.4945068359375,56.6015625,63.25482177734375,56.65411376953125,63.5360107421875,56.1112060546875L63.7354736328125,55.8095703125L54.2266845703125,55.8111572265625ZM45.72515869140625,43.17303466796875C45.47406005859375,42.569580078125,45.49090576171875,41.5919189453125,46.027587890625,40.687744140625C46.3656005859375,40.123046875,47.26177978515625,39.872802734375,48.04425048828125,40.1702880859375C48.92254638671875,39.49603271484375,49.1317138671875,40.2213134765625,49.9091796875,39.89349365234375C50.9302978515625,39.46240234375,50.358154296875,41.0352783203125,51.3477783203125,41.43359375C51.7564697265625,40.3729248046875,50.41558837890625,39.5762939453125,51.25640869140625,39.0755615234375C51.8565673828125,38.7198486328125,52.308837890625,38.4989013671875,52.55419921875,38.0206298828125C52.90496826171875,37.3408203125,53.04248046875,36.8441162109375,53.3111572265625,36.7537841796875C53.9346923828125,36.547607421875,53.80029296875,35.97100830078125,53.80029296875,35.97100830078125C53.80029296875,35.97100830078125,54.46234130859375,36.16064453125,54.978759765625,35.6893310546875C54.5850830078125,35.4833984375,54.010498046875,35.3046875,54.16143798828125,34.893798828125C54.33831787109375,34.408203125,55.673828125,35.395263671875,56.06756591796875,34.598876953125C55.275146484375,34.2615966796875,54.46435546875,33.530517578125,53.97979736328125,33.362060546875C53.64617919921875,33.7144775390625,53.4393310546875,33.57269287109375,53.010498046875,33.2415771484375C52.28509521484375,32.6832275390625,52.22381591796875,33.21551513671875,51.77044677734375,32.829833984375C51.40789794921875,33.53875732421875,51.9527587890625,33.482421875,52.12158203125,33.659912109375C52.5875244140625,34.156494140625,51.6494140625,33.213623046875,51.73974609375,34.4808349609375C51.763427734375,34.810302734375,51.264404296875,34.8702392578125,50.89300537109375,34.156494140625C50.69940185546875,33.78515625,49.15789794921875,33.8641357421875,48.92523193359375,33.508544921875C49.1376953125,33.09521484375,50.9517822265625,31.6224365234375,53.73822021484375,31.97552490234375C49.6910400390625,30.4283447265625,44.22259521484375,32.1197509765625,44.1680908203125,32.7076416015625C43.62322998046875,33.04058837890625,43.81060791015625,33.41973876953125,43.5389404296875,33.508544921875C43.068603515625,33.661865234375,42.55389404296875,35.0633544921875,42.55389404296875,35.0633544921875C42.55389404296875,35.0633544921875,42.84710693359375,35.25390625,41.93231201171875,36.25103759765625C41.1787109375,37.072021484375,40.955078125,38.31689453125,40.955078125,38.31689453125C40.955078125,38.31689453125,41.4534912109375,39.2037353515625,41.3592529296875,40.22613525390625C41.28802490234375,41.00537109375,41.25439453125,40.427734375,41.6029052734375,40.992919921875C41.80548095703125,41.323486328125,42.02703857421875,42.4781494140625,42.161865234375,42.0279541015625C42.41973876953125,41.167724609375,41.6929931640625,40.3731689453125,41.81304931640625,39.51824951171875C41.83978271484375,39.62469482421875,42.09246826171875,39.17999267578125,42.0826416015625,39.58270263671875C42.0546875,40.63818359375,43.41802978515625,42.672119140625,43.41802978515625,42.672119140625C43.41802978515625,42.672119140625,42.90924072265625,43.17401123046875,43.4400634765625,43.17401123046875L45.72515869140625,43.17303466796875Z" fill-rule="evenodd" clip-rule="evenodd" style="fill: rgb(255, 255, 255); fill-opacity: 1;"/></g></g></g><g id="shape-ef754fd0-77da-803d-8008-3ecbce62f147"><g class="fills" id="fills-ef754fd0-77da-803d-8008-3ecbce62f147"><path d="M16.72357177734375,46.00115966796875L13.65020751953125,46.00115966796875L14.1087646484375,46.533447265625L14.1087646484375,50.461181640625C14.1087646484375,51.345458984375,13.50836181640625,51.7177734375,12.611572265625,51.7177734375C11.7152099609375,51.7177734375,11.1134033203125,51.345458984375,11.1134033203125,50.461181640625L11.1134033203125,46.533447265625L11.5728759765625,46.00115966796875L8.5,46.00115966796875L8.95867919921875,46.533447265625L8.95867919921875,50.5252685546875C8.95867919921875,52.4854736328125,10.0860595703125,53.24102783203125,12.611572265625,53.24102783203125C15.137451171875,53.24102783203125,16.2645263671875,52.4854736328125,16.2645263671875,50.5252685546875L16.2645263671875,46.533447265625L16.72357177734375,46.00115966796875Z" style="fill: rgb(255, 255, 255); fill-opacity: 1;"/></g></g><g id="shape-ef754fd0-77da-803d-8008-3ecbce62f148"><g class="fills" id="fills-ef754fd0-77da-803d-8008-3ecbce62f148"><path d="M27.3900146484375,46.00115966796875L24.796875,46.00115966796875L25.25823974609375,46.533447265625L25.25823974609375,50.11053466796875L21.53985595703125,46.00115966796875L19.208984375,46.00115966796875L19.66961669921875,46.533447265625L19.66961669921875,52.5699462890625L19.208984375,53.1021728515625L21.80035400390625,53.1021728515625L21.34185791015625,52.5699462890625L21.34185791015625,48.930419921875L25.29058837890625,53.1021728515625L26.93048095703125,53.1021728515625L26.93048095703125,46.533447265625Z" style="fill: rgb(255, 255, 255); fill-opacity: 1;"/></g></g><g id="shape-ef754fd0-77da-803d-8008-3ecbce62f149"><g class="fills" id="fills-ef754fd0-77da-803d-8008-3ecbce62f149"><path d="M33.36181640625,53.1021728515625L32.90228271484375,52.5699462890625L32.90228271484375,46.533447265625L33.36181640625,46.00115966796875L30.26678466796875,46.00115966796875L30.7261962890625,46.533447265625L30.7261962890625,52.5699462890625L30.26678466796875,53.1021728515625Z" style="fill: rgb(255, 255, 255); fill-opacity: 1;"/></g></g><g id="shape-ef754fd0-77da-803d-8008-3ecbce62f14a"><g class="fills" id="fills-ef754fd0-77da-803d-8008-3ecbce62f14a"><path d="M43.5672607421875,46.00115966796875L40.9639892578125,46.00115966796875L41.423583984375,46.533447265625L39.58709716796875,50.441162109375L37.8148193359375,46.533447265625L38.27490234375,46.00115966796875L35.21160888671875,46.00115966796875L38.6129150390625,53.1021728515625L40.13299560546875,53.1021728515625Z" style="fill: rgb(255, 255, 255); fill-opacity: 1;"/></g></g><g id="shape-ef754fd0-77da-803d-8008-3ecbce62f14b"><g class="fills" id="fills-ef754fd0-77da-803d-8008-3ecbce62f14b"><path d="M52.2574462890625,53.1021728515625L52.2574462890625,51.17578125L51.71051025390625,51.62310791015625L47.98150634765625,51.62310791015625L47.98150634765625,50.2587890625L50.343017578125,50.2587890625L50.880126953125,50.70721435546875L50.880126953125,48.39599609375L50.343017578125,48.8438720703125L47.98150634765625,48.8438720703125L47.98150634765625,47.48046875L51.71051025390625,47.48046875L52.2574462890625,47.92803955078125L52.2574462890625,46.00115966796875L45.3905029296875,46.00115966796875L45.849853515625,46.533447265625L45.849853515625,52.5699462890625L45.3905029296875,53.1021728515625Z" style="fill: rgb(255, 255, 255); fill-opacity: 1;"/></g></g><g id="shape-ef754fd0-77da-803d-8008-3ecbce62f14c"><g class="fills" id="fills-ef754fd0-77da-803d-8008-3ecbce62f14c"><path d="M62.71142578125,53.1021728515625L60.7342529296875,50.30194091796875C61.70599365234375,49.9178466796875,62.3829345703125,49.18389892578125,62.3829345703125,48.1517333984375C62.3829345703125,46.968994140625,61.640380859375,46.00115966796875,59.5618896484375,46.00115966796875L55.01373291015625,46.00115966796875L55.47412109375,46.533447265625L55.47412109375,52.5699462890625L55.01373291015625,53.1021728515625L58.06488037109375,53.1021728515625L57.6064453125,52.5699462890625L57.6064453125,50.5577392578125L58.5233154296875,50.5577392578125L59.92138671875,52.5699462890625L59.46380615234375,53.1021728515625L62.71142578125,53.1021728515625ZM60.19818115234375,48.3004150390625C60.19818115234375,48.8116455078125,59.6943359375,49.22723388671875,58.99371337890625,49.22723388671875L57.6065673828125,49.22723388671875L57.6065673828125,47.48046875L59.256591796875,47.48046875C59.73675537109375,47.48046875,60.19818115234375,47.7161865234375,60.19818115234375,48.3004150390625" fill-rule="evenodd" clip-rule="evenodd" style="fill: rgb(255, 255, 255); fill-opacity: 1;"/></g></g><g id="shape-ef754fd0-77da-803d-8008-3ecbce62f14d"><g class="fills" id="fills-ef754fd0-77da-803d-8008-3ecbce62f14d"><path d="M71.95050048828125,51.0267333984375C71.95050048828125,49.8978271484375,71.02020263671875,49.26983642578125,69.67498779296875,48.8438720703125C68.80059814453125,48.57855224609375,67.5654296875,48.38714599609375,67.5654296875,47.822021484375C67.5654296875,47.5447998046875,67.90338134765625,47.3526611328125,68.49432373046875,47.3526611328125C69.283203125,47.3526611328125,70.5716552734375,47.67254638671875,71.5771484375,48.1407470703125L71.5771484375,45.76806640625L70.99859619140625,46.31005859375C70.38604736328125,46.0648193359375,69.3248291015625,45.809814453125,68.5931396484375,45.809814453125C66.112548828125,45.809814453125,65.312255859375,46.874267578125,65.312255859375,47.84381103515625C65.312255859375,49.163330078125,66.208984375,49.73876953125,67.62042236328125,50.2178955078125C68.66827392578125,50.568603515625,69.6419677734375,50.60076904296875,69.6419677734375,51.18499755859375C69.6419677734375,51.68701171875,69.0418701171875,51.75091552734375,68.735595703125,51.75091552734375C67.95916748046875,51.75091552734375,66.5809326171875,51.4837646484375,65.3558349609375,50.70733642578125L65.3558349609375,53.3363037109375L65.93572998046875,52.71875C66.50537109375,52.9326171875,67.78448486328125,53.2935791015625,68.833740234375,53.2935791015625C70.986572265625,53.29345703125,71.95050048828125,52.3673095703125,71.95050048828125,51.0267333984375" style="fill: rgb(255, 255, 255); fill-opacity: 1;"/></g></g><g id="shape-ef754fd0-77da-803d-8008-3ecbce62f14e"><g class="fills" id="fills-ef754fd0-77da-803d-8008-3ecbce62f14e"><path d="M82.858154296875,53.1021728515625L79.27142333984375,46.00115966796875L76.8109130859375,46.00115966796875L77.0721435546875,46.533447265625L73.82440185546875,53.1021728515625L76.50445556640625,53.1021728515625L76.04498291015625,52.5699462890625L76.4051513671875,51.82525634765625L79.88238525390625,51.82525634765625L80.23175048828125,52.5699462890625L79.772216796875,53.1021728515625L82.858154296875,53.1021728515625ZM79.347412109375,50.547607421875L76.92926025390625,50.547607421875L78.133544921875,48.003173828125L79.347412109375,50.547607421875Z" fill-rule="evenodd" clip-rule="evenodd" style="fill: rgb(255, 255, 255); fill-opacity: 1;"/></g></g><g id="shape-ef754fd0-77da-803d-8008-3ecbce62f14f"><g class="fills" id="fills-ef754fd0-77da-803d-8008-3ecbce62f14f"><path d="M91.5,53.1021728515625L91.5,51.17578125L90.95196533203125,51.62310791015625L87.44244384765625,51.62310791015625L87.44244384765625,46.533447265625L87.90087890625,46.00115966796875L84.84954833984375,46.00115966796875L85.30902099609375,46.533447265625L85.30902099609375,52.5699462890625L84.84954833984375,53.1021728515625Z" style="fill: rgb(255, 255, 255); fill-opacity: 1;"/></g></g><g id="shape-ef754fd0-77da-803d-8008-3ecbce62f150"><g class="fills" id="fills-ef754fd0-77da-803d-8008-3ecbce62f150"><path d="M89.5523681640625,46.985595703125C89.5523681640625,47.48291015625,89.96490478515625,47.883544921875,90.47283935546875,47.883544921875C90.98468017578125,47.883544921875,91.39703369140625,47.48291015625,91.39703369140625,46.985595703125C91.39703369140625,46.48907470703125,90.98468017578125,46.08709716796875,90.47283935546875,46.08709716796875C89.96502685546875,46.0869140625,89.5523681640625,46.4888916015625,89.5523681640625,46.985595703125M89.45550537109375,46.985595703125C89.45550537109375,46.438232421875,89.9114990234375,45.9940185546875,90.47283935546875,45.9940185546875C91.03692626953125,45.9940185546875,91.49261474609375,46.438232421875,91.49261474609375,46.985595703125C91.49261474609375,47.533447265625,91.03717041015625,47.978271484375,90.47283935546875,47.978271484375C89.9114990234375,47.978271484375,89.45550537109375,47.533447265625,89.45550537109375,46.985595703125" style="fill: rgb(255, 255, 255); fill-opacity: 1;"/></g></g><g id="shape-ef754fd0-77da-803d-8008-3ecbce62f151"><g class="fills" id="fills-ef754fd0-77da-803d-8008-3ecbce62f151"><path d="M90.857666015625,46.59814453125C90.7559814453125,46.5150146484375,90.6368408203125,46.47705078125,90.50543212890625,46.47705078125C90.2059326171875,46.47705078125,89.98272705078125,46.703125,89.98272705078125,46.9884033203125C89.98272705078125,47.2763671875,90.20159912109375,47.5057373046875,90.5015869140625,47.5057373046875C90.63885498046875,47.5057373046875,90.76922607421875,47.457275390625,90.87109375,47.3692626953125L90.87109375,47.2379150390625C90.778076171875,47.345947265625,90.64239501953125,47.415283203125,90.4979248046875,47.415283203125C90.25836181640625,47.415283203125,90.08203125,47.21209716796875,90.08203125,46.98822021484375C90.08203125,46.763916015625,90.2603759765625,46.56573486328125,90.4998779296875,46.56573486328125C90.6441650390625,46.56573486328125,90.76123046875,46.622314453125,90.857421875,46.7254638671875L90.857421875,46.59814453125Z" fill-rule="evenodd" clip-rule="evenodd" style="fill: rgb(255, 255, 255); fill-opacity: 1;"/></g></g></g></g></g></g></g></g></g></svg>